<svg xmlns="http://www.w3.org/2000/svg" width="100" height="32" viewBox="0 0 100 32" role="img" aria-labelledby="title">
  <title id="title">联系我 — 前往我的个人网站</title>
  <rect x="0.5" y="0.5" width="99" height="31" rx="8" fill="#EAF2FA" stroke="#CCDCEC"/>
  <text x="22" y="21" fill="#365F89" font-family="-apple-system, BlinkMacSystemFont, 'Segoe UI', 'PingFang SC', 'Microsoft YaHei', sans-serif" font-size="13" font-weight="600">联系我</text>
  <path transform="translate(66 9.5) scale(0.54)" d="M22 16.92v3a2 2 0 0 1-2.18 2 19.79 19.79 0 0 1-8.63-3.07 19.5 19.5 0 0 1-6-6 19.79 19.79 0 0 1-3.07-8.67A2 2 0 0 1 4.11 2h3a2 2 0 0 1 2 1.72c.12.96.36 1.9.7 2.79a2 2 0 0 1-.45 2.11L8.09 9.89a16 16 0 0 0 6 6l1.27-1.27a2 2 0 0 1 2.11-.45c.89.34 1.83.58 2.79.7A2 2 0 0 1 22 16.92z" fill="none" stroke="#365F89" stroke-width="1.8" stroke-linecap="round" stroke-linejoin="round"/>
</svg>
